<?xml version="1.0" encoding="iso-8859-1"?>
<!-- Generator: Adobe Illustrator 19.0.0, SVG Export Plug-In . SVG Version: 6.00 Build 0)  -->
<svg version="1.1" id="Layer_1" xmlns="http://www.w3.org/2000/svg" xmlns:xlink="http://www.w3.org/1999/xlink" x="0px" y="0px"
	 viewBox="0 0 512.002 512.002" style="enable-background:new 0 0 512.002 512.002;" xml:space="preserve">
<rect x="154.91" y="393.004" style="fill:#105939;" width="35.096" height="110.907"/>
<rect x="154.91" y="492.687" style="fill:#2D3740;" width="35.096" height="11.231"/>
<path style="fill:#aaefd1;" d="M140.932,325.568c0-17.413,14.117-31.53,31.531-31.53c17.415,0,31.532,14.116,31.532,31.53v67.495
	c0,17.418-14.116,31.532-31.532,31.532c-17.413,0-31.531-14.114-31.531-31.532V325.568z"/>
<rect x="312.148" y="393.004" style="fill:#105939;" width="35.095" height="110.907"/>
<rect x="312.148" y="492.687" style="fill:#2D3740;" width="35.095" height="11.231"/>
<g>
	<path style="fill:#aaefd1;" d="M298.164,325.568c0-17.413,14.116-31.53,31.531-31.53c17.415,0,31.532,14.116,31.532,31.53v67.495
		c0,17.418-14.117,31.532-31.532,31.532c-17.415,0-31.531-14.114-31.531-31.532V325.568z"/>
	<rect x="109.236" y="393.004" style="fill:#2d7f5c;" width="35.096" height="110.907"/>
</g>
<rect x="109.236" y="492.687" style="fill:#333E48;" width="35.096" height="11.231"/>
<path style="fill:#aaefd1;" d="M95.251,325.568c0-17.413,14.118-31.53,31.532-31.53s31.531,14.116,31.531,31.53v67.495
	c0,17.418-14.116,31.532-31.531,31.532s-31.532-14.114-31.532-31.532V325.568z"/>
<rect x="266.464" y="393.004" style="fill:#2d7f5c;" width="35.095" height="110.907"/>
<rect x="266.464" y="492.687" style="fill:#333E48;" width="35.095" height="11.231"/>
<g>
	<path style="fill:#aaefd1;" d="M252.482,325.568c0-17.413,14.117-31.53,31.532-31.53c17.413,0,31.531,14.116,31.531,31.53v67.495
		c0,17.418-14.116,31.532-31.531,31.532s-31.532-14.114-31.532-31.532L252.482,325.568L252.482,325.568z"/>
	<path style="fill:#aaefd1;" d="M397.515,28.407h-34.667c-26.126,0-47.303,21.18-47.303,47.303c0,0.019,0.001,0.036,0.001,0.055
		v104.559H126.773c-11.886,0-23.11,2.952-33.003,8.133c-4.681-6.021-11.976-9.91-20.193-9.91c-14.13,0-25.585,11.454-25.585,25.585
		c0,9.192,4.863,17.229,12.141,21.739c-3.185,8.085-4.956,16.867-4.956,26.05v35.798c0,39.378,32.219,71.595,71.596,71.595h202.659
		c39.378,0,71.596-32.217,71.596-71.595V122.869c24.485-1.801,43.789-22.217,43.789-47.158
		C444.819,49.587,423.642,28.407,397.515,28.407z"/>
</g>
<g>
	<path style="fill:#58c495;" d="M444.755,74.095c-0.323-9.538-3.444-18.363-8.608-25.663H376.97c0,4.709-2.566,8.811-6.371,11.012
		c0.48,1.339,0.756,2.775,0.756,4.284c0,3.548-1.458,6.756-3.802,9.061c13.397,3.864,23.198,16.209,23.198,30.849
		c0,7.44-2.537,14.282-6.783,19.728h55.062c13.796,0,24.979-11.185,24.979-24.976C464.009,86.565,455.787,76.687,444.755,74.095z"/>
	<path style="fill:#C8C9C9;" d="M365.807,45.962c-3.695,3.692-9.687,3.692-13.382,0c-3.694-3.696-3.696-9.691,0-13.385L376.92,8.085
		c7.39,7.389,7.391,19.37,0.001,26.76L365.807,45.962z"/>
</g>
<path style="fill:#105939;" d="M421.116,63.728c-3.097,0-5.605,2.506-5.605,5.606c0,3.096,2.509,5.604,5.605,5.604
	s5.604-2.508,5.604-5.604C426.72,66.234,424.211,63.728,421.116,63.728z M467.323,81.264c0.266-0.801,0.415-1.655,0.415-2.546
	c0-4.467-3.621-8.087-8.087-8.087h-2.662c-1.466-0.943-3.009-1.786-4.635-2.496c-1.199-8.78-4.469-17.113-9.603-24.37l0.012-0.009
	c-10.379-14.675-27.294-23.435-45.248-23.435h-6.993c-0.281-6.784-3.054-13.123-7.884-17.954c-3.158-3.156-8.279-3.158-11.436,0
	l-18.982,18.98c-25.705,5.013-44.762,27.901-44.762,54.365c0,0.049,0.001,0.102,0.001,0.156v96.371H126.773
	c-10.685,0-21.354,2.206-31.197,6.417c-6.062-5.266-13.795-8.195-21.999-8.195c-18.567,0-33.672,15.105-33.672,33.672
	c0,9.471,3.898,18.274,10.671,24.574c-2.315,7.523-3.486,15.307-3.486,23.215v35.798c0,28.327,15.574,54.9,40.074,69.06v36.283
	c0,12.075,5.436,22.9,13.984,30.172v80.678c0,4.467,3.621,8.087,8.087,8.087h35.096c4.466,0,8.087-3.62,8.087-8.087v-80.678
	c0.323-0.276,0.648-0.55,0.963-0.833c0.327,0.297,0.659,0.588,0.995,0.874v80.638c0,4.467,3.621,8.087,8.087,8.087h35.096
	c4.466,0,8.087-3.62,8.087-8.087v-80.678c8.547-7.273,13.984-18.096,13.984-30.172v-25.661h24.767v25.661
	c0,12.075,5.436,22.9,13.984,30.172v80.678c0,4.467,3.621,8.087,8.087,8.087h35.096c4.466,0,8.087-3.62,8.087-8.087v-80.678
	c0.323-0.276,0.649-0.55,0.963-0.836c0.327,0.298,0.659,0.589,0.994,0.874v80.639c0,4.467,3.621,8.087,8.087,8.087h35.096
	c4.466,0,8.087-3.62,8.087-8.087v-80.678c8.547-7.273,13.984-18.096,13.984-30.172V351.71
	c19.558-14.534,32.255-37.804,32.255-63.987V131.454h29.914c18.233,0,33.066-14.832,33.066-33.063
	C472.096,92.154,470.362,86.287,467.323,81.264z M385.99,36.494h11.525c5.922,0,11.677,1.363,16.887,3.851h-31.557
	C384.02,39.145,385.073,37.859,385.99,36.494z M358.142,38.296l16.218-16.214c-0.148,2.662-1.256,5.144-3.158,7.046l-11.11,11.114
	c-0.333,0.333-0.715,0.402-0.976,0.402c-0.261,0-0.643-0.069-0.971-0.398c-0.334-0.335-0.404-0.716-0.404-0.977
	C357.739,39.008,357.809,38.629,358.142,38.296z M136.244,495.825h-18.923v-64.294c3.033,0.745,6.2,1.149,9.461,1.149
	c3.261,0,6.427-0.404,9.461-1.149C136.244,431.531,136.244,495.825,136.244,495.825z M189.471,495.825h-18.923v-64.29
	c3.056,0.745,6.226,1.146,9.461,1.146c3.261,0,6.428-0.404,9.461-1.149L189.471,495.825L189.471,495.825z M203.455,393.062
	c0,12.928-10.517,23.445-23.445,23.445c-6.547,0-12.658-2.683-17.046-7.34c2.202-4.924,3.435-10.373,3.435-16.107V367.4h37.056
	V393.062z M293.476,495.825h-18.923v-64.294c3.033,0.745,6.201,1.149,9.462,1.149c3.261,0,6.427-0.404,9.461-1.149V495.825z
	 M346.704,495.825h-18.923v-64.29c3.056,0.745,6.226,1.146,9.461,1.146c3.261,0,6.427-0.404,9.461-1.149V495.825z M360.686,393.062
	c0,12.928-10.517,23.445-23.445,23.445c-6.547,0-12.658-2.683-17.046-7.34c2.201-4.924,3.434-10.373,3.434-16.107V367.4h5.801
	c11.089,0,21.652-2.283,31.254-6.393v32.055H360.686z M392.941,287.72c0,35.019-28.49,63.508-63.509,63.508h-13.888
	c-4.466,0-8.087,3.62-8.087,8.087v33.748c0,12.928-10.517,23.445-23.444,23.445c-12.928,0-23.445-10.517-23.445-23.445v-33.748
	c0-4.467-3.621-8.087-8.087-8.087h-94.169c-4.466,0-8.087,3.62-8.087,8.087v33.748c0,12.928-10.517,23.445-23.444,23.445
	c-12.928,0-23.445-10.517-23.445-23.445v-41.121c0-3.076-1.745-5.885-4.502-7.249c-21.609-10.686-35.572-33.049-35.572-56.974
	v-35.798c0-7.923,1.478-15.689,4.393-23.085c1.433-3.638,0.059-7.779-3.264-9.839c-5.207-3.226-8.314-8.783-8.314-14.866
	c0-9.648,7.85-17.499,17.499-17.499c5.422,0,10.456,2.473,13.809,6.787c2.401,3.089,6.671,4.016,10.135,2.201
	c9.136-4.785,18.977-7.211,29.25-7.211h188.773c4.466,0,8.087-3.62,8.087-8.087V75.765c0-0.046,0-0.098-0.001-0.15
	c0.033-13.684,7.263-26.004,18.254-33.017c0.653,3.419,2.305,6.565,4.823,9.084c3.314,3.311,7.72,5.135,12.406,5.135
	c1.375,0,2.719-0.175,4.025-0.48c-0.754,1.808-0.856,3.881-0.155,5.836c0.19,0.528,0.281,1.037,0.281,1.554
	c0,1.246-0.493,2.417-1.386,3.297c-2.049,2.014-2.875,4.965-2.168,7.75c0.706,2.786,2.837,4.988,5.598,5.784
	c10.217,2.947,17.352,12.437,17.352,23.08c0,5.397-1.754,10.499-5.074,14.756c-1.9,2.438-2.246,5.745-0.89,8.521
	c1.355,2.776,4.176,4.538,7.266,4.538h8.974V287.72H392.941z M439.029,115.28h-41.895c1.127-3.731,1.704-7.637,1.704-11.642
	c0-14.476-7.894-27.679-20.035-34.762c0.422-1.662,0.638-3.389,0.638-5.149c0-0.357-0.01-0.714-0.028-1.071
	c1.684-1.798,3.035-3.881,3.994-6.137h48.298c3.048,5.428,4.753,11.525,4.967,17.85c0.124,3.65,2.677,6.763,6.232,7.598
	c7.664,1.802,13.016,8.556,13.016,16.424C455.922,107.705,448.344,115.28,439.029,115.28z"/>
<g>
</g>
<g>
</g>
<g>
</g>
<g>
</g>
<g>
</g>
<g>
</g>
<g>
</g>
<g>
</g>
<g>
</g>
<g>
</g>
<g>
</g>
<g>
</g>
<g>
</g>
<g>
</g>
<g>
</g>
</svg>
