<?xml version="1.0" standalone="no"?>
<!DOCTYPE svg PUBLIC "-//W3C//DTD SVG 20010904//EN"
 "http://www.w3.org/TR/2001/REC-SVG-20010904/DTD/svg10.dtd">
<svg version="1.0" xmlns="http://www.w3.org/2000/svg"
 width="700.000000pt" height="700.000000pt" viewBox="0 0 700.000000 700.000000"
 preserveAspectRatio="xMidYMid meet">
<metadata>
Created by potrace 1.11, written by Peter Selinger 2001-2013
</metadata>
<g transform="translate(0.000000,700.000000) scale(0.100000,-0.100000)"
fill="#000000" stroke="none">
<path d="M3240 6984 c-222 -30 -450 -99 -644 -195 -86 -43 -201 -108 -231
-132 -5 -4 -44 -32 -85 -62 -443 -322 -759 -866 -817 -1410 -15 -135 -6 -536
12 -565 2 -3 6 -25 10 -50 14 -97 54 -229 127 -423 54 -145 228 -417 355 -556
l42 -46 1 -403 0 -404 -178 -177 c-98 -97 -188 -191 -200 -208 l-22 -31 0
-630 c0 -415 4 -640 10 -658 12 -31 407 -433 456 -464 37 -23 94 -26 132 -6
46 24 469 458 473 486 3 14 4 304 4 645 l0 620 -22 35 c-12 19 -103 115 -201
213 l-179 178 0 274 c0 151 3 275 5 275 3 0 48 -28 100 -62 196 -127 487 -249
672 -282 14 -2 36 -7 50 -10 28 -7 82 -14 155 -22 28 -3 59 -7 70 -9 11 -2 22
-4 25 -4 3 -1 4 -153 4 -338 l-1 -338 -182 -180 c-101 -99 -191 -196 -201
-215 -16 -33 -18 -78 -18 -665 0 -346 4 -646 9 -665 6 -27 59 -86 236 -262
242 -240 258 -251 330 -233 18 4 109 87 251 228 123 122 228 230 233 240 20
36 19 87 -1 128 -19 36 -46 56 -101 72 -14 4 -16 28 -15 173 l1 168 31 8 c17
4 45 21 62 38 34 32 39 52 33 132 -2 30 -59 85 -95 92 l-34 7 0 168 0 169 38
11 c37 11 89 60 91 84 0 7 2 21 4 32 11 54 -16 90 -208 283 l-192 192 2 322
c0 178 2 330 2 339 1 12 13 16 49 18 26 0 57 3 69 5 11 3 43 8 70 11 74 11
270 60 353 91 154 55 303 128 429 212 52 34 98 62 101 62 4 0 6 -124 6 -275
l-1 -276 -186 -187 c-103 -103 -192 -198 -200 -212 -20 -37 -22 -1249 -2
-1300 15 -38 418 -451 465 -476 38 -20 95 -17 132 6 49 31 444 432 455 463 14
35 15 1265 2 1300 -5 13 -95 109 -200 215 l-191 191 0 403 0 403 38 40 c129
138 272 362 362 569 47 106 109 315 126 421 3 22 7 42 9 45 10 16 20 188 20
335 -1 206 -7 271 -49 462 -53 243 -187 534 -346 748 -301 404 -762 702 -1225
791 -22 4 -47 9 -55 10 -8 2 -37 6 -65 10 -27 3 -57 8 -65 11 -35 12 -399 10
-500 -3z m409 -869 c393 -53 732 -296 904 -647 191 -391 154 -850 -98 -1203
-137 -192 -372 -364 -596 -435 -191 -61 -442 -71 -630 -24 -300 74 -550 253
-721 514 -67 103 -118 224 -153 360 -25 100 -36 306 -22 417 45 346 245 658
542 847 71 46 195 104 260 123 98 28 125 35 155 39 19 3 60 8 90 12 59 9 196
7 269 -3z"/>
</g>
</svg>
